<?xml version="1.0" encoding="UTF-8"?>
<svg id="Layer_1" data-name="Layer 1" xmlns="http://www.w3.org/2000/svg" viewBox="0 0 1136.16 1136.11">
  <defs>
    <style>
      .cls-1 {
        fill-rule: evenodd;
      }

      .cls-1, .cls-2 {
        fill: #fff;
        stroke-width: 0px;
      }
    </style>
  </defs>
  <path class="cls-2" d="M845.28,290.85c-70.95-70.94-168.96-114.84-277.19-114.84s-206.28,43.89-277.21,114.84c-70.97,70.96-114.86,168.96-114.86,277.21s43.89,206.27,114.86,277.21c70.93,70.94,168.96,114.85,277.21,114.85s206.24-43.91,277.19-114.85c70.97-70.94,114.86-168.98,114.86-277.21s-43.89-206.25-114.86-277.21M568.09,162.29c112.02,0,213.47,45.42,286.89,118.86,73.44,73.44,118.89,174.88,118.89,286.91s-45.45,213.46-118.89,286.92c-73.42,73.42-174.87,118.87-286.89,118.87s-213.49-45.45-286.93-118.87c-73.44-73.45-118.87-174.88-118.87-286.92s45.43-213.47,118.87-286.91,174.87-118.86,286.93-118.86h0Z"/>
  <path class="cls-2" d="M960.04,176.12C859.7,75.8,721.15,13.73,568.09,13.73s-291.65,62.07-391.97,162.39C75.81,276.42,13.75,415.01,13.75,568.06s62.06,291.64,162.37,391.94c100.31,100.33,238.91,162.39,391.97,162.39s291.61-62.05,391.95-162.39c100.32-100.3,162.37-238.9,162.37-391.94s-62.06-291.63-162.37-391.94M568.09,0c156.8,0,298.84,63.6,401.63,166.41,102.83,102.8,166.44,244.81,166.44,401.64s-63.62,298.86-166.44,401.65c-102.79,102.82-244.83,166.41-401.63,166.41s-298.86-63.6-401.67-166.41C63.62,866.92,0,724.91,0,568.06S63.62,269.21,166.42,166.41C269.23,63.6,411.23,0,568.09,0Z"/>
  <path class="cls-1" d="M1038.66,593.25c12.31,0,22.3,9.98,22.3,22.29s-9.99,22.29-22.3,22.29-22.26-9.98-22.26-22.29,9.98-22.29,22.26-22.29M97.48,593.25c12.29,0,22.28,9.98,22.28,22.29s-9.99,22.29-22.28,22.29-22.28-9.98-22.28-22.29,9.96-22.29,22.28-22.29Z"/>
  <path class="cls-1" d="M601.39,401.68q-.04.24,0,0M372.02,364.09c-7.58-5.22-15.23-10.16-22.99-14.82,9.96-4.81,24.18,1.24,22.99,14.82ZM549.96,255.82c-2.39-7.85-5.12-15.54-8.26-23.04,8.28-.51,11.26,10.76,8.26,23.04ZM537.97,224.32c-2.45-5.25-5.12-10.39-8-15.44,5.61.59,8.37,7.14,8,15.44ZM771.36,341.86c-.97-1.09-2.39-1.72-3.95-1.63-4.23.27-8.34.77-12.41,1.48-2.51-9.84,18.27-9.07,16.37.15h-.01ZM362.07,369.14c-8.06-1.09-18.33-5.71-19.14-11.11-.06-.33-.06-.68-.02-1.03l.83.51c6.18,3.69,12.29,7.57,18.33,11.62h0ZM397.25,395.34c-13.83,6.07-28.28,1.06-34.23-18.75,2.71-1.44,5.89-.74,8.57-.88,8.71,6.19,17.26,12.73,25.66,19.63ZM422.91,417.89c-14.91,1.3-32.28,1.24-35.75-13.69,7.27,1.04,13.55.4,19.61-.86,5.45,4.72,10.84,9.57,16.14,14.55h0ZM397.13,382.69c-4.66-3.68-9.34-7.26-14.08-10.73-.18-5.91-1.11-11.28-4.78-14.59-2.94-2.31-.12-5.89,4.94-3.61,12.84,7.1,14.52,17.67,13.91,28.94h0ZM440.98,435.64c-25.8,2.75-43.04,6.05-41.3-12.89,10.88,3.3,19.99,2.21,29.61,1.23,3.93,3.81,7.84,7.7,11.69,11.66h0ZM414,396.69c-4.11-3.55-8.24-7.01-12.41-10.41.36-4.9,1.58-9.75.85-14.71-.55-3.66-2.65-5.77,2.75-6.36,4.21-.47,8.2,3.3,9.88,10.21,1.09,7.53.08,14.5-1.07,21.29v-.02ZM465.97,463.04c-28.58,1.72-52.66-.41-50.47-20.31,12.31,3.96,22.44,2.22,33.58,1.44l.26.26c5.65,6.06,11.2,12.27,16.63,18.61h0ZM430.77,411.88c-3.22-3.05-6.48-6.05-9.76-8.99.2-1.04.37-2.12.53-3.18.75-5.02,1.17-10.14,1.17-15.42.02-3.12-1.15-7.11,3.77-6.7,2.37.2,4.88,1.15,6.52,2.78,2.19,2.19,1.8,4.7,1.64,7.53-.46,8.24-1.92,16.18-3.87,23.98ZM487.73,489.95c-8.04,2.45-38.58,2.6-45.55-2.33-1.32-1.84-1.54-3.75-.89-5.69-3.16-1.78-6.22-3.37-8.47-5.23-3.1-2.54-4.52-6.06-3.34-10.04.55-1.81.93-1.65,2.69-1.12,13.69,4.1,25.99,2.6,38.89,3.54,4.09,4.89,8.1,9.84,12.03,14.86,1.56,2,3.1,4,4.64,6.01ZM506.2,515.43c-15.27,1.89-30.87,1.86-47.01-1.2-6.28-2.15-8.61-6.42-6.24-13.21-2.27-.92-4.09-2.01-5.33-3.33-3.85-4.16-.85-3.39,2.45-2.62,14.38,3.34,29.04,4.83,44.13,3.54,4.09,5.53,8.08,11.14,11.99,16.82h0ZM452.61,433.67c-5.37-5.68-10.88-11.23-16.46-16.64,2.86-8.2,5.39-16.24,4.78-26.51,17.82,2.54,18.07,20,11.69,43.15h-.01ZM473.71,457.08c-5.29-6.2-10.7-12.28-16.2-18.2,3.22-9.27,6.5-17.96,5.79-29.47,18.96,2.7,18.04,22.31,10.41,47.67h0ZM493.5,481.45l-2.73-3.51c-3.54-4.54-7.17-9.04-10.84-13.46,3.24-10.84,5.33-22.25,4.56-35.11,20.03,2.88,17.88,24.63,9.01,52.08ZM513.22,508.44c-4.29-6.23-8.73-12.38-13.25-18.46,3.42-11.25,5.95-24.1,5.14-37.38,20.25,2.9,17.22,27.88,8.1,55.84h.01ZM495.42,586.68c.53.53,1.09,1.04,1.68,1.54-6.6,2.16-12.6.98-17.36-7.39-2.43-4.63.22-8.06,4.5-10.6,2.73,2.28,5.79,4.24,9.01,5.87l-.12.21c-1.7,3.72-.42,7.65,2.29,10.37ZM353.42,513.02c-5.02,6.17-11.06,10.75-18.29,5.21-1.48-1.04-2.06-2.72-1.29-4.14l.12-.14c6.26-.72,12.76-1.04,19.46-.94h0ZM326.14,515.11c-3.34,4.07-7.72,7.42-12.44,3.79-.28-.19-.53-.44-.69-.69,4.21-1.26,8.59-2.3,13.12-3.1h.01ZM444.34,537.54c5.75,3,11.48,6.26,17.16,9.8-2.73,2.5-5.61,4.83-8.75,6.94-5.51,3.72-7.54,5.66-13.31,1.51-1.38-.98-2.45-2.07-3.14-3.24-3.3-5.46,1.32-7.46,4.56-10.87,1.28-1.32,2.43-2.71,3.48-4.15h0ZM341.98,505.93c-6.66.38-13.12,1.17-19.34,2.39-1.34-.74-2.53-1.59-3.38-2.73-.97-1.73-.24-3.78,1.58-5.05,8.67-6.65,15.15-1.9,21.14,5.4h0ZM371.23,514.25c-3.99,4.55-6.3,9.45-12.78,7.3-4.25-1.42-1.56-1.48.81-3.48,1.52-1.32,2.9-2.87,4.17-4.6,2.57.2,5.19.46,7.8.78h0ZM393.4,518.27c-2.43,2.72-5.33,5.17-9.34,7.32-4.7,2.42-9.64,2.42-12.21-.63-2.11-3.36,4.44-5.99,6.48-7.26,1.01-.64,2.01-1.29,2.94-1.96,2.06.37,4.13.76,6.22,1.2,1.96.41,3.93.86,5.91,1.33h0ZM416.76,525.36c-2.73,2.72-5.94,5.21-10.13,7.45-5.94,3.05-12.19,3.05-15.43-.79-2.65-4.25,5.59-7.58,8.2-9.19,1.11-.68,2.17-1.39,3.22-2.12,4.68,1.36,9.4,2.92,14.14,4.64h0ZM422.77,527.66c5.69,2.27,11.42,4.83,17.13,7.64-3.95,3.42-8.14,6.55-12.84,9.09-5,2.71-6.91,4.19-11.48.2-1.09-.95-1.9-1.96-2.41-3.02-2.35-4.93,1.74-6.25,4.8-8.88,1.78-1.56,3.38-3.22,4.8-5.02h0ZM364.91,506.25c-4.25-.35-8.45-.53-12.58-.57-2.13-2.45-4.62-4.87-7.59-7.14-1.86-1.39-7.92-4.54-5.59-7.57,2.76-2.69,6.06-4.29,10.35-1.54,6.48,4.29,11.26,10.5,15.41,16.83h0ZM387.33,509.42c-4.47-.91-8.93-1.63-13.31-2.21-2.04-3.96-4.74-8.16-8.45-12.16-1.66-1.77-7.27-6.01-4.35-8.71,3.28-2.27,6.93-3.33,10.81.24,7.03,6.65,11.71,14.52,15.29,22.83h.01ZM400.7,495.3c4.17,6.33,6.71,13.41,9.8,20.17-4.38-1.41-8.75-2.66-13.08-3.77-2.37-6.02-6.36-11.91-9.48-17.96-1.36-2.67-4.33-7.74,1.52-7.04,5.35.63,8.49,4.4,11.24,8.6h0ZM430.59,505.22c3.48,6.79,4.17,13.25,4.76,19.84-5.45-2.47-10.9-4.69-16.32-6.67-2.78-8.03-6.04-15.88-10.33-23.39-1.68-2.63.38-3.96,3.48-3.59,6.99.53,13.02,5.6,18.41,13.82h0ZM523.72,542.25c-29.71,2.51-61.37-1-59.53-21.48,12.21,3.66,34.53,3.45,47.45,2.69,4.13,6.2,8.16,12.48,12.07,18.8h.01ZM457.69,533.93c.89,1.63,1.96,3.11,3.22,4.48-5.79-3.46-11.61-6.62-17.44-9.51.32-7.59-2.23-17.01-7.63-28.27-.99-2.09-1.36-1.98.67-.95.55.29,1.09.52,1.62.69.71,1.18,1.58,2.28,2.51,3.3.69.73,1.42,1.39,2.19,2-.12,7.45,4.11,13.51,12.07,16.51-.08,4.12.79,8.12,2.79,11.77v-.02ZM467.01,550.9c2.49,1.65,4.98,3.34,7.45,5.09.12.39.24.77.37,1.15,1.11,3.07,2.69,5.81,4.66,8.26-1.68,1.36-3.42,2.66-5.22,3.9-5.53,3.72-7.55,5.66-13.31,1.51-1.38-1-2.43-2.07-3.16-3.24-3.28-5.46,1.32-7.47,4.58-10.87,1.76-1.83,3.3-3.77,4.64-5.81h-.01ZM580.99,384.94c-5.37,6.38-11.04,12.34-16.81,18.22.22-8.38.34-16.63.34-24.79,7.33-7.76,13.49-16.45,20.27-25.11,1.8-2.33,2.69-3.02,4.46-.59,1.78,2.46,2.8,4.8,2.67,7.44-.42,9.52-4.98,17.78-10.94,24.84h0ZM584.74,412.72c-6.79,8.65-14.22,16.49-21.77,24.17.32-7.26.61-14.47.87-21.59,7.8-7.19,14.99-15.03,21.57-23.43,1.8-2.31,2.69-3.01,4.46-.59,1.78,2.47,2.79,4.83,2.67,7.45-.22,5.21-4.72,10.09-7.8,13.99h0ZM575.91,315.31c-4.38,7-8.28,13.36-12.64,19.64-.61-9.5-1.5-18.81-2.65-27.96,4.37-5.59,8.46-11.44,12.25-17.52,1.56-2.49,2.39-3.28,4.38-1.06,2.03,2.25,3.32,4.49,3.46,7.12.32,5.18-2.19,15.58-4.8,19.78h0ZM564.47,366.5c-.1-7.5-.32-14.92-.67-22.24,5.61-6.77,10.77-13.95,15.45-21.48,1.56-2.5,2.37-3.28,4.38-1.04,2.03,2.25,3.28,4.48,3.44,7.1.34,5.19-3.61,10.53-6.24,14.73-5.02,8.09-10.61,15.59-16.37,22.94h0ZM559.34,297.91c-1.54-10-3.46-19.76-5.85-29.31,1.56-2.1,3.04-4.28,4.48-6.52,2.27-3.66,1.9-4.43,5.06-.74,8.49,9.9,5.69,22.09-3.69,36.56h0ZM527.22,224.49c-5.71-4.16-8.87-9.3-7.41-13.69,2.65,4.49,5.12,9.04,7.41,13.69ZM542.55,265.46c-5.35-1.69-10.59-4.17-14.66-8-4.48-4.21-5.63-8.05-6.38-13.94-1.28-10.26,1.56-14.36,9.48-10.93,4.66,10.57,8.47,21.53,11.57,32.87h-.01ZM550.05,302.01c-17.6-8.12-27.67-17.62-25.17-31.42.87-4.76.93-3.9,4.76-1.91,4.96,2.59,10.09,4.76,15.37,6.46,2.05,8.75,3.71,17.71,5.04,26.87h0ZM539.49,325.73c-4.8-3.59-12.62-8.45-12.15-15.09.26-3.84,2.45-7.92,5.04-11.53,5.81,5.17,12.15,8.68,18.78,11.34.95,7.54,1.68,15.24,2.21,23.07-4.76-1.95-9.38-4.46-13.87-7.79h-.01ZM538.6,354.03c-5.17-2.81-13.61-7.12-13.92-13.76-.1-2.3.47-4.84,1.48-7.48,2.07-5.34,5.37-2.41,8.73.17,5.97,4.58,12.39,8.01,19.08,10.84.28,5.43.47,10.9.59,16.44-5.47-1.44-10.79-3.4-15.96-6.2h0ZM554.66,391.18c-9.24-3.45-33.88-18.11-34.23-25.56-.12-2.3.12-6.23,1.15-8.89,2.07-5.34,5.37-2.39,8.73.18,6.18,4.71,16.97,10.23,24.43,13.38.06,6.9,0,13.85-.08,20.9h0ZM553.91,419.02c-9.13-3.31-35.79-18.9-36.13-26.45-.1-2.3.14-6.24,1.18-8.89,2.04-5.34,5.37-2.39,8.71.18,6.46,4.93,19.32,12.04,26.84,15.15-.12,6.61-.34,13.28-.59,20h-.01ZM527.81,427.41c-3.58-2.45-8.63-5.35-10.21-9.65-.79-2.18-.57-4.42.28-6.96.83-2.48,1.76-2.13,3.89-.68,10.03,6.88,20.62,12.65,31.84,17.28-.22,4.9-.43,9.83-.67,14.79-8.53-4.54-16.99-9.21-25.13-14.79h0ZM527.71,460.13c-1.13-3.55-2.86-6.79-5.37-9.51-1.82-1.98-3.89-3.54-6.16-4.73.14-4.17,2.21-8.72,4.74-12.77,7.09,5.5,21.99,12.68,31.7,16.04-.36,7.25-.73,14.55-1.11,21.91-1.98-.62-4.15-1.36-6.4-2.19-3.44-4.52-8.59-7.21-14.66-7.23h-.34l-2.39-1.51h-.01ZM547.05,508.9c-2.27,10.83-8.04,20.03-14.64,28.86-4.38-7.07-8.87-14.09-13.51-21.02,3.08-14.18,8.65-26.9,8.63-42.92-.02-2.07-.06-2.53,2.05-2.53,4.62.02,7.94,2.63,9.66,6.78,1.26,2.99,1.98,6.74,2.92,10.69,2.27-.08,4.21.75,5.77,2.76,2.49,3.62.02,13.07-.87,17.38h0ZM714.79,356.21c-5.37,3.04-10.63,6.46-15.72,10.21.32-8.17,2.15-15.8,6.3-22.63,2.11-3.51,3.87-6.19,8.46-5.73,2.9.29,4.72,2.53,3.32,7.1-1.34,3.75-1.95,7.43-2.37,11.05h0ZM742.54,344.57c-5.73,1.63-11.28,3.68-16.73,6.11,1.88-13.61,7.13-19.4,16.45-16.07,3.5,1.29,3.56,1.54,2.43,5.11-.59,1.7-1.32,3.31-2.15,4.86h0ZM749.54,356.41c-1.6-.68-3.24-1.45-4.8-2.3,5.73-1.68,11.67-2.89,17.72-3.61-1.7,1.62-3.77,2.76-5.57,4.04-3.93,2.73-2.55,3.94-7.35,1.87h0ZM739.11,357.03c-1.7,3.72-5.14,5.43-8.04,7.44-3.93,2.72-2.51,3.94-7.33,1.89-1.26-.55-2.53-1.13-3.81-1.78,6.36-3.54,12.92-6.5,19.69-8.83-.08.33-.26.75-.51,1.29h0ZM699.88,389.49c-3.52-.35-7.31-.95-10.45-2.31,5.29-4.95,10.79-9.51,16.43-13.61l2.96-.13c2.77-.15,3.26-.58,2.89,2.57-.48,4.05-3.26,6.71-5.39,9.49-2.92,3.78-1.23,4.52-6.44,4h0ZM664.48,415c1.76-2.28,3.54-4.53,5.33-6.72,3.99-4.87,8.1-9.53,12.34-13.91l9.8,2.07c3.56.75,3.38.79,2.88,4.6-.22,1.5-.55,2.95-1.01,4.35-1.2,3.74-1.68,4.2-5.29,5.55-8.1,3.04-16.12,4.48-24.04,4.07h-.01ZM672.92,440.37c-9.84,3.51-19.69,5.08-29.53,6.13,4.39-7.44,9.01-14.67,13.83-21.58,6.68.33,13.37-.8,20.01-2.9,2.07-.63,5.02-2.65,4.54,1.03-.24,1.71-1.28,3.13-2.84,4.34,3.26,5.94,1.36,10.01-6.02,12.99h.01ZM625.12,481.36c4.19-8.94,8.63-17.71,13.35-26.22,8.53-.02,17.05-1.54,25.56-3.84,4.5-1.21,5.47-3.04,4.07,1.85-1.03,3.62-1.46,7.24-.93,10.86.51,3.78,1.3,3.42-2.03,5.8-13.06,9.39-26.49,11.42-40.02,11.55h0ZM614.15,506.73c2.43-6.08,4.96-12.11,7.66-18.1,9.94.3,19.54-.74,28.68-3.51,3.53-1.06,3.63-1.57,5.41,2.06,3.36,6.83-1.23,9.74-4.23,13.44-3.26,4.02-1.46,3.78-7.25,4.29-10.23.91-21,2.88-30.26,1.82h0ZM652.45,414.77c-6.97-18.98-6.79-42.25,7.82-52.27,7.03-4.83,6.56-.46,5.61,4.39-2.13,10.06-1.46,19.76,1.38,29.22-1.68,1.93-3.38,3.93-5.02,5.95-3.34,4.09-6.6,8.34-9.78,12.7h0ZM690.73,372.97c-5.75,4.78-11.24,10-16.57,15.59-2.03-15.94.79-32.44,10.31-39.07,1.86-1.17,3.67-1.78,5.39-1.84,4.98-.15,2.76,3.27,1.84,6.38-1.88,6.35-2.01,12.67-.97,18.95h0ZM632.42,445.98c-3.93-12.96-6.75-26.02-7.31-39.37-.49-10.63-.63-16.01,6.89-23.84,14.89-15.51,8,3.66,8.4,12.25.49,9.78,2.61,19.11,6.24,28.08-4.98,7.35-9.74,15-14.22,22.89h0ZM619.23,470.99c-14.54-29.96-18.8-62.28-6.95-71.77,3.08-2.45,3.93-.89,3.87,1.95-.18,20.43,3.87,38.33,10.96,54.4-2.73,5.05-5.33,10.21-7.88,15.42h0ZM608.19,495.48c-17.82-30.63-25.84-66.39-14.48-76.07,2.9-2.45,3.85-.88,4.05,1.96,1.46,20.42,8.65,41.86,17.3,58.51-2.39,5.17-4.66,10.38-6.87,15.61h0ZM599.48,517.59c-21.16-26.96-33.58-59.29-24.16-70.26,2.45-2.86,3.62-1.48,4.27,1.3,4.56,19.53,14.72,39.17,25.62,54.14-2.01,4.93-3.89,9.87-5.73,14.82h0ZM725.14,562.01c-5.63.38-7.13-.95-11.79-3.75-11.89-7.16-25.03-11.85-39.43-14.03,7.11-3.3,14.28-6.44,21.55-9.43,13.41,5.03,26.98,9.25,40.14,15.13,4.29,1.93,5.31,2.27,1.86,6.64-2.53,3.14-6.52,5.06-12.33,5.44ZM641.29,560.68c8.24-4.51,16.65-8.83,25.2-12.94,13.06.69,24.37,8.71,38.46,14.79,6.5,2.81,7.55,4.62,1.32,8.66-15.92,10.34-25.88,3.78-40.87-2.54-7.68-3.24-16.04-5.34-24.1-7.97h-.01ZM884.57,483.84c2.11-10.89,12.82-12.19,13.89-.5-4.64.12-9.3.29-13.89.5ZM844.01,487.03c7.17-10.95,21.27-23.79,29.04-19.16,8.65,5.18-8.99,14.2-12.31,17.52-5.63.47-11.18,1.03-16.73,1.64ZM813.56,491.25c8.2-10.87,17.8-20.37,29.45-27.97,4.78-3.11,13.35.11,8.08,4.19-8.51,6.59-16.18,13.73-22.87,21.55-4.92.69-9.82,1.43-14.66,2.24h0ZM785.25,496.65c9.38-14.36,20.78-26.8,35.26-36.26,4.78-3.11,13.37.11,8.1,4.19-11.18,8.66-20.92,18.26-28.8,29.11-4.88.94-9.72,1.92-14.56,2.96ZM760.85,502.51c8.08-15.9,18.51-29.87,32.81-40.56,4.11-3.09,11.99-.67,7.51,3.3-11.5,10.11-21.04,21.36-27.95,34.15-4.13,1-8.29,2.03-12.38,3.11h.01ZM738.06,509.07c7.13-16.51,16.71-31.19,30.44-42.8,3.91-3.3,11.91-1.38,7.68,2.84-11,10.98-19.99,22.95-26.09,36.38-4.05,1.15-8.08,2.34-12.03,3.58h0ZM718.52,515.54c5.95-13.73,16.63-32.49,27.48-42.47,3.06-2.8,9.62-1.12,6.18,2.28-8.71,8.66-19.38,25.6-24.77,37.15-3,.98-5.96,2-8.89,3.04h0ZM699.7,522.56c4.48-13.94,12.5-30.48,22.2-40.7,2.88-3.01,9.48-2.16,6.44,1.61-7.39,9.17-14.38,23.65-18.37,35.18-3.46,1.28-6.87,2.58-10.27,3.91h0ZM699.56,491.76c2.71-3.1,9.4-2.12,6.34,1.64-6.7,8.22-14.2,22.75-18.79,34.32-2.92,1.23-5.77,2.47-8.65,3.75,4.78-13.55,12.52-29.98,21.11-39.71h-.01ZM631.49,531.83c-8.67-.67-17.87-.67-25.93-2.22,2.07-5.85,4.21-11.71,6.48-17.55,9.7,1.93,19.3,2.48,28.72,1.29,3.65-.47,3.83-.96,4.96,2.92,2.21,7.3-2.82,9.4-6.38,12.55-3.87,3.42-2.09,3.49-7.86,3.03v-.02ZM590.01,545.5c-1.58-4.57-3.85-8.86-6.91-12.79l-.14-.23-.18-.2c-2.09-2.36-4.88-4.11-7.88-4.67-.42-3.96-1.92-7.48-4.17-10.57-9.32-17.54-12.98-33.57-7.09-40.91,2.35-2.94,3.56-1.59,4.31,1.16,5.17,19.14,16.55,36.21,27.95,50.3-2.07,5.96-4.03,11.89-5.87,17.8l-.02.11ZM625.55,568.91c.79-.03,1.56-.24,2.27-.67,1.7-.98,3.42-1.96,5.14-2.93,12.03,3.74,24.04,4.81,36.05,10.6,4.92,2.36,8.4,3.66,3.99,9.19-1.95,2.44-5.02,3.79-8.65,3.99-7.31.41-10.31-4-16.63-6.43-9.32-3.55-20.68-4.23-23.23-9.95.55-1.22.91-2.5,1.05-3.81h.01ZM604.37,577.75c-1.88-5.59-5.02-10.56-9.38-14.76l.38-1.36c6.06.71,12.07.76,17.96,0,3.2-.42,3.36-.85,4.39,2.56,1.9,6.38-2.49,8.22-5.61,10.96-3.4,3.01-1.84,3.05-6.85,2.66l-.91-.06h.02ZM915.08,490.02c-2.57,13.17-25.5,17.01-36.13,3.87,10.41-.59,20.98-.92,31.7-.98,1.98-.02,3.69-1.2,4.44-2.89h-.01ZM874.16,514.29c-15.23-1.59-18.33-11.25-27.34-17.75,6.42-.69,12.88-1.3,19.44-1.8,3.93,2.48,7.59,5.4,10.92,8.84,1.2,1.26,2.01,2,1.46,3.87-.73,2.42-3.57,3.9-4.48,6.83h0ZM844.47,520.55l-25.58-20.28c5.18-.83,10.45-1.58,15.76-2.28l16.08,12.82c7.96,7.32,1.3,13.88-6.26,9.74ZM818.71,525.6l-31.82-19.32c6.24-1.36,12.52-2.62,18.88-3.78l18.55,11.36c9.9,7.08,3.36,15.33-5.61,11.75h0ZM768.93,527.46c-6.46-4.51-13.61-7.52-20.35-11.39,3.12-.92,6.26-1.81,9.42-2.68,5.24-1.45,10.55-2.83,15.9-4.13,8.83,2.34,17.78,7.74,26.67,14.08,5.02,3.58,6.4,3.36,1.21,7.7-3.67,3.04-7.72,5.07-12.31,5.59-9.46,1.12-13.41-4.2-20.54-9.17h0ZM708.41,529.66c9.3-3.54,18.67-6.85,28.25-9.92,9.52,3.45,18.51,10.49,29.25,16.42,6.08,3.37,7.07,5.29,1.2,8.77-14.97,8.93-24.3,1.48-38.36-6.17-6.5-3.52-13.49-6.17-20.33-9.1h-.01ZM660.43,539.83c3.75-13.06,9.62-27.94,16.63-37.38,2.45-3.31,9.2-2.89,6.48,1.09-5.43,7.94-11.08,21.08-14.8,32.33-2.78,1.3-5.53,2.62-8.3,3.96h-.01ZM638.65,541.14c-.22-.71-.42-1.39-.69-2.06.51-.15,1.01-.35,1.54-.62,2.11-1.05,3.14-2.57,4.84-4.04,2.41-2.16,4.62-3.4,6.64-6.21,2.59-3.63,3.26-7.77,2.47-11.96,1.62-2.71,3.46-4.55,5.63-5.21,7.09-2.18,2.8,3.55,1.46,6.88-3.5,8.77-5.33,17.26-8.2,25.92-3.18,1.59-6.28,3.21-9.4,4.85l-4.39,2.34c1.19-3.13,1.13-6.52.1-9.89h0ZM597.28,555.16c1.52-5.14,3.16-10.31,4.88-15.51,8.43,1.67,16.75,2.13,24.95,1.09,3.2-.41,3.32-.85,4.35,2.56,1.92,6.38-2.49,8.23-5.57,10.98-3.42,3.01-1.82,3.05-6.91,2.66-7.25-.58-14.93-.59-21.71-1.77h.01ZM551.52,570.89c-4.52-8.39-9.23-16.69-14.14-24.92,7.84-12.25,13.94-25.55,15.86-41.47.73-6.01,1.3-4.06,2.51-.53,1.23,3.63,1.44,7.54,1.05,11.6,5.91,3.65,10.31,8.49,9.86,15.39-1.78,14.79-8.12,27.53-15.15,39.93h.01ZM727.26,653.3h-339.51l6.28-34.59c2.31-9.22,8.55-10.67,17.62-10.89h291.71c9.07.21,15.31,1.67,17.6,10.89l6.3,34.59h0ZM507.25,596.75h-6.62c-.24-1.81.34-3.39,1.48-4.79,1.38.83,2.79,1.54,4.27,2.19.26.88.57,1.75.87,2.6ZM553.87,596.75h-36.33c-1.62-2.6-2.59-5.76-3.12-9.16-3.91-1.2-7.45-2.86-10.33-5.4-2.79-2.45-4.38-3.74,1.44-2.12,14.16,3.95,27.62,3.81,40.79,1.79,2.59,4.94,5.11,9.9,7.55,14.89ZM570.38,596.75h-5.63c-2.81-5.85-5.75-11.67-8.75-17.45,6.74-12.62,12.74-25.64,14.77-40.78.18-3.38,3.16-3.67,5.75-.72,4.19,5.4,6.52,11.59,7.49,18.25,1.28,8.82-.22,14.62-3.79,22.68-2.76,6.29-6.14,12.24-9.84,18.02h0ZM597.82,596.75h-20.13c5.06-8.04,9.2-16.99,11.34-27.94,4.66,4.43,7.54,9.86,8.55,16.27.67,4.05.79,7.95.24,11.67ZM615.06,596.75h-5.71c.04-.6.1-1.27.1-1.87,1.86.6,3.75,1.21,5.61,1.87h0ZM650.38,596.75h-19.28c-1.09-.75-2.25-1.51-3.59-2.15-6.28-3.02-13.87-4.52-17.44-7.7,1.9.09,3.73-.05,5.59-1.01,2-1,2.9-2.31,4.41-3.68.61-.53,1.22-1,1.76-1.43,8.16,2.76,16.38,4.82,24.43,9.55,3.44,2.03,6.05,3.31,4.11,6.41h.01ZM680.9,792.47l28.76-128.1h22.2c6.26-.54,7.8-4.59,6.77-10.58l-6.8-37.38c-3-12.58-11.1-19.29-28.34-19.66h-32.77c3.56-1.15,6.74-3.19,9.11-6.2,1.46-1.81,2.67-3.81,3.34-5.93,1.05.21,2.11.38,3.2.5,9.07,1.01,17.11-1.71,24.67-6.61,3.16-2.06,6.2-4.72,7.51-8.17,1.99.46,4.23.58,7.13.38,7.23-.46,14.04-2.93,18.63-8.72,1.23-1.57,2.35-3.22,3.08-4.99.75.16,1.52.3,2.23.41,7.96,1.15,15.19-.94,21.96-4.99,3.4-2,6.42-4.55,7.63-8.12,3.62,1.18,7.31,1.48,11.28,1.01,6.38-.75,11.97-3.49,16.87-7.58,1.96-1.66,3.89-3.49,5.14-5.69l2.27,1.38.65.27c7.54,2.99,16.95,1.55,21.02-6.14.28-.54.55-1.1.75-1.65l2.43,1.92.63.37c10.49,5.76,20.39.48,22.44-7.79,3.18,1.32,6.62,2.15,10.55,2.56l7.11.74,2.07-6.55c.26-.4.75-.86,1.05-1.2,1.24-1.45,2.29-2.89,3.02-4.69.3-.74.28-.59.53-1.4l.14-.53c3.42,1.03,7.01,1.51,10.65,1.41,9.01-.27,18.31-4.22,23.15-12.16,1.32-2.13,2.21-4.46,2.67-6.9l.18-.86c5.06-16.48-3.53-25.78-20.7-19.23-4.84-6.02-12.96-6.82-19.16-2.57-.73-3.77-3.16-6.71-6.42-8.68-5.55-3.31-11.54-2.63-17.13-.12-3.73-7.73-15.39-8.72-22.18-4.29l-.79.52c-4.13-6.9-15.17-7.65-21.71-3.4-2.09,1.37-4.11,2.79-6.1,4.29-4.23-6.77-15.07-7.02-21.21-2.44-1.9,1.42-3.73,2.89-5.47,4.4-5.11-4.99-14.71-4.29-20.11.27-2,1.69-3.91,3.45-5.77,5.26-4.96-3.17-12.52-2.31-16.99,1.77-2.19,2.03-4.36,4.31-6.48,6.82-5.21-3.8-13.57-2.31-18.03,2.39-1.96,2.06-3.87,4.32-5.61,6.73-5.33-2.81-12.94-1.19-17.01,3.42-1.84,2.1-3.62,4.43-5.35,6.91-5.59-3.1-13.69-.88-17.56,4.34-1.34,1.76-2.57,3.63-3.75,5.59-1.8-.83-3.77-1.09-5.81-.94.91-1.09,1.78-2.24,2.53-3.78,2.37-4.71,1.88-9.62-.42-14.24-.47-.98-.95-1.93-1.54-2.76,2.88-1.48,5.65-3.19,8.46-5.2,2.39-1.73,4.42-3.33,5.31-6.35.71-2.62.12-4.18-.24-6.59-.37-2.62.06-5.25.75-7.77.75-2.68,1.24-5.43.32-7.83l.06-.03c8.89-3.59,13.89-10.18,11.81-18.49.85-1.44,1.44-3.04,1.66-4.79.24-1.8.08-3.59-.49-5.21.81-.27,1.64-.56,2.45-.86,5.81-2.18,7.92-4.35,9.8-10.3.59-1.83,1.01-3.7,1.3-5.63.2-1.74.45-3.33.26-4.91,2.06-.05,4.03-.52,5.89-1.96,2.19-1.68,2.39-3.21,3.85-5.08,3.38-4.37,6.24-7.3,6.89-13.2.18-1.52.24-2.99-.06-4.38l1.7.74c3.08,1.31,6.06,2.33,9.38,1.09,2.59-.97,3.26-2.36,5.21-3.71,3.81-2.64,6.95-4.45,9.32-8.16.63.3,1.25.57,1.9.85,3.08,1.33,6.02,2.33,9.38,1.09,2.59-.97,3.22-2.36,5.18-3.71,2.27-1.58,4.46-2.81,6.48-4.77l3.36-3.23c3.14-3.53,7.09-6.63,7.98-11.69.3-8.13-7.15-13.31-14.95-13.82-4.68-.32-9.7.92-13.06,4.2-1.56-1.96-3.75-2.95-6.16-3.83-4.54-1.63-9.38-2-13.91-.02-3.56,1.59-6.18,4.3-8.04,7.52-1.76-2.42-4.54-4.09-8.26-4.48-7.78-.78-11.95,3.19-15.64,9.31-.55.88-1.03,1.79-1.52,2.69-2.09-1.85-4.88-2.54-7.82-2.45-3.3.12-6.36,1.24-9.11,2.99l-.18.09-.14.11c-4.23,2.95-7.31,7.03-9.5,11.7l-.12-.11c-4.68-3.87-10.19-1.57-14.52,1.39-5.41,3.72-9.21,8.66-11.69,14.26-3.52-2.04-7.39-1.26-10.65.81-2.59,1.62-5.02,3.98-7.11,6.17-4.62,4.83-7.05,9.08-8.18,13.74-3.77-1.78-7.66-.44-10.78,2.04-2.65,2.13-4.66,4.83-6.12,7.83.06-.66.12-1.35.18-2.04.22-4.9-1.56-9.29-4.42-13.21-.93-1.32-2.04-2.45-3.28-3.36,4.07-6.65,6.74-14,7.09-22.05.22-4.9-1.56-9.3-4.41-13.23-1.3-1.8-2.9-3.3-4.76-4.23,2.65-4.49,4.68-9.13,4.31-14.8-.3-4.93-2.51-9.03-5.79-12.67-1.03-1.15-2.19-2.13-3.46-2.89,1.96-5.94,3.18-13.02,2.88-17.74-.3-4.94-2.51-9.04-5.77-12.67-1.95-2.15-4.27-3.72-7.01-4.2.85-7.77-.95-15.54-7.11-22.71-2.61-3.06-5.67-5.72-9.84-5.61.65-9.3-1.5-19.46-9.88-24.12-.99-.58-2.03-1-3.1-1.33.37-10.75-3.89-23.24-16.18-24.56l-5-.53h-11.99l.04.06-2.86,8.63c-2.33,6.97.43,13.58,4.94,18.73-4.25,4.73-4.41,11.84-3.64,17.99.85,6.71,2.43,11.8,6.44,16.6-1.78,2.06-2.49,4.79-3.02,7.71-1.98,10.95,1.66,19.53,8,26.37-2.94,4.38-5.27,9.39-5.65,14.67-.37,5.22,1.4,9.36,4.17,12.88-2.15,1.62-3.73,3.94-4.74,6.59-1.4,3.56-2.27,7.38-2.09,11.22.12,2.47.69,4.67,1.6,6.67-1.82,1.56-3.18,3.69-4.11,6.07-1.44,3.7-1.95,8.65-1.76,12.61.14,2.91,1.34,5.7,3.16,8.35-1.8,1.55-3.12,3.64-4.03,6-1.44,3.71-1.96,8.63-1.78,12.61.16,3.28,1.72,6.46,4.01,9.4-1.6,1.44-2.73,3.37-3.44,5.53-1.44,4.32-1.76,8.63-.2,12.97,1.03,2.8,2.57,5.03,4.41,6.94l-.24.4c-2.51,4.01-4.72,8.55-5.65,13.26-.89-4.49-2.63-8.57-5.51-11.98-4.07-4.79-9.64-7.33-15.72-8.31-.91-4.34-2.63-8.32-5.47-11.66-4.21-4.94-10-7.5-16.34-8.41l-.85-.12c-.97-3.82-2.61-7.35-5.18-10.37-4.03-4.73-9.52-7.29-15.55-8.29-.38-2.81-1.44-5.35-3.99-7.9-3.08-3.07-7.41-4.83-11.73-5.19-1.78-.14-3.53,0-5.17.49-2.88-7.47-8.99-13.82-17.72-12.85-1.48.15-2.92.45-4.23.95-2.9-4.42-7.05-8.24-12.8-11.42l-.3-.15-.3-.15c-4.11-1.86-9.12-1.95-12.8.18-.59-.6-1.24-1.16-1.9-1.71-7.43-5.88-18.03-6.97-26.53-2.85l-6.5,3.15c-2.49,1.04-3.32,3.46-3.85,5.68l-.47,5.72c-.12,1.7-.14,1.29.1,2.92,1.28,8.62,10.71,14.08,19.42,16.66l.93,3.08c3.61,12,11.18,22.82,23.76,26.12l.24.98c1.86,8.09,6.42,13.19,12.29,16.28-.51,6.35.57,12.71,5.21,17.43,2.92,2.96,6.6,4.57,10.49,5.43.02,4.67,1.2,9.19,3.91,13.17,2.47,3.59,5.93,6.27,10.03,8.25-1.01,6.3,1.5,12.32,6.58,16.48,1.64,1.38,3.46,2.53,5.35,3.62.2,1.03.53,2.04.97,3.01-1.07.11-2.15.44-3.22,1.07-4.8-4.63-10.61-8-17.6-8.56-3.32-.35-6.68.24-9.36,2.04-3.44-3.57-7.6-6.06-13.14-6.71-4.15-.5-8.24.49-10.96,3.54l-1.26-1.21-.06-.06-.06-.05c-6.79-6.18-14.95-6.03-22.2-1.01l-.53.35-.47.44c-.55.5-1.03,1.03-1.46,1.57-7.31-4.19-14.89-2.56-20.82,3.25l-.47.44-.37.51c-.73.94-1.28,1.9-1.68,2.86-5.45-.39-10.47,1.61-14.87,4.95-3.08,2.24-5.08,5.53-5.57,9.04-14.38,5.98-20.88,14.88-17.95,27.28,9.42-.7,18.86,2,28.03-.02,1.48-.3,2.94-.76,4.41-1.35,1.66-.77,3.26-1.8,4.76-3.02l.61.47c7.31,5.53,14.44,5.35,20.76,1.97,1.44,1.17,3.22,2.06,5.14,2.69,3.08,1.01,6.22,1.29,9.28.6h.02c4.58,5.46,11.5,6.55,17.95,4.93.18.38.4.75.63,1.12l.35.54.4.49c5.1,6.04,12.76,7.21,19.89,5.53.24.69.51,1.38.85,2.06,1.09,2.3,2.71,4.28,4.64,5.96,3.24,2.83,6.85,4.8,11.28,4.71,2.35-.05,4.38-.66,6.3-1.52.35.89.79,1.77,1.3,2.61,1.44,2.39,3.4,4.35,5.67,5.96,3.75,2.7,7.82,4.51,12.56,3.94.38-.04.77-.11,1.15-.18.38,1.83,1.13,3.62,2.15,5.31,1.44,2.37,3.4,4.34,5.63,5.94,3.77,2.69,7.86,4.51,12.58,3.95.73-.09,1.44-.23,2.09-.41.34,1.1.79,2.21,1.38,3.34l.06.11.08.12c3.12,5.5,7.17,9.4,11.95,11.4h-72.21c-17.21.36-25.36,7.08-28.33,19.66l-6.8,37.38c-1.03,5.99.53,10.04,6.8,10.58h22.12l29.04,128.1h-13.47c-4.86.43-6.05,3.57-5.27,8.17l5.27,28.97c2.31,9.71,8.59,14.94,21.94,15.18h229.39c13.31-.24,19.61-5.47,21.94-15.18l5.25-28.97c.83-4.6-.38-7.74-5.25-8.17h-13.25v.06ZM672.7,778.35h-60.84c-2.65,0-4.78-2.15-4.78-4.81s2.13-4.77,4.78-4.77h62.99l2.88-12.7h-93.61c-2.65,0-4.8-2.15-4.8-4.77s2.15-4.81,4.8-4.81h95.72l3.04-13.45h-129.93c-2.65,0-4.78-2.15-4.78-4.78s2.13-4.84,4.78-4.84h132.09l3.18-14.18h-108.78c-2.63,0-4.78-2.15-4.78-4.81s2.15-4.78,4.78-4.78h110.93l3.02-13.46h-82.74c-2.63,0-4.78-2.15-4.78-4.8s2.15-4.78,4.78-4.78h84.92l2.71-12.22h-281.58l29.04,128.1h223.78l3.18-14.12v-.02ZM427.43,803.54h260.18l-4.31,23.77c-1.48,5.78-5.43,6.29-11.2,6.41h-229.15c-5.79-.12-9.72-.63-11.22-6.41l-4.29-23.77h0ZM529.39,551.59c4.68,7.87,9.2,15.83,13.51,23.84-30.08,2.7-62.12-8.26-60.23-29.05,11.95,3.58,33.68,5.52,46.72,5.2h0Z"/>
  <path class="cls-2" d="M958.38,352.54l14.79-7.86,15.76,29.65,11.5-6.11-15.76-29.65,13.85-7.38,17.82,33.56,11.87-6.29-25.64-48.26-63.88,33.95,26.31,49.46,11.87-6.3-18.49-34.76h0ZM957.18,246.67l-53.65,17.06,24.55-50.5-11.85-13.65-34.15,71,10.9,12.47,75.12-23.81-10.92-12.57h0ZM812.11,210.29l13.73,9.59,41.5-59.24-13.73-9.6-41.5,59.26h0ZM735.39,168.44l15.27,6.82,23.9-53.62,21.12,9.42,5.55-12.47-57.58-25.63-5.53,12.46,21.12,9.42-23.86,53.6h.01ZM632.58,110.12l16.12-25.28,6.46,29.27-22.58-3.99ZM661.76,143.92l17.3,3.05-19.3-76.86-16.26-2.87-44.31,65.64,16.91,2.98,8.97-14.15,33.05,5.83,3.64,16.38h0ZM528.03,63.43l5.35,43.59-41.03-39.21-13.75,1.68,8.83,71.8,16.38-2.03-5.35-43.59,41.15,39.19,13.63-1.68-8.81-71.77-16.41,2.01h.01ZM362.36,104.07l10.11,52.99-39.31-36.8-13.55,7.5,9.72,52.72-38.91-36.53-15.19,8.41,55.86,51.74,15.62-8.66-9.36-50.8,37.65,35.11,15.72-8.71-14.36-74.72-14,7.76h0ZM240.11,265.72l-12.05-11.62,23.33-24.15-9.36-9.04-23.33,24.15-11.3-10.9,26.41-27.35-9.68-9.33-37.93,39.31,52.01,50.24,38.91-40.28-9.66-9.34-27.34,28.32h0ZM134.42,308.77l38.04,21.94-56,9.19-6.93,11.99,62.62,36.17,8.26-14.32-38.02-21.96,56.06-9.28,6.87-11.88-62.62-36.17-8.29,14.32h.01Z"/>
  <path class="cls-2" d="M880.04,972.7c4.01-3.27,7.13-6.59,9.38-9.92,2.23-3.33,3.69-6.59,4.36-9.8.71-3.21.65-6.26-.04-9.13-.69-2.91-2.03-5.53-3.97-7.89-2.11-2.57-4.31-4.32-6.68-5.41-2.31-1.03-4.76-1.51-7.27-1.42-2.55.06-5.08.52-7.6,1.33-2.57.82-5.04,1.78-7.53,2.93-2.47,1.21-4.9,2.36-7.17,3.45-2.27,1.15-4.42,2.06-6.4,2.78-2.01.72-3.79,1.06-5.37.97-1.56-.09-2.9-.73-3.95-2-.97-1.2-1.52-2.54-1.54-4.11-.1-1.51.42-3.24,1.54-5.08,1.11-1.87,2.94-3.81,5.47-5.9,2.51-2.03,5.39-3.72,8.59-5.11,3.2-1.45,6.74-2.45,10.59-3.08l-3.99-13.12c-2.67.3-5.33.97-8.06,1.93-2.71.97-5.37,2.24-8,3.75s-5.12,3.21-7.47,5.14c-3.99,3.24-7.07,6.53-9.32,9.86-2.23,3.3-3.69,6.53-4.36,9.74-.67,3.21-.61,6.23.12,9.13s2.06,5.56,3.99,7.95c2.15,2.57,4.41,4.38,6.78,5.47,2.35,1.06,4.84,1.54,7.33,1.51,2.51-.09,5.06-.52,7.64-1.33,2.57-.78,5.08-1.75,7.51-2.9,2.51-1.15,4.9-2.33,7.17-3.45,2.33-1.09,4.48-2.06,6.48-2.75,1.98-.69,3.77-1,5.35-.91,1.64.09,2.96.76,3.99,2.06.97,1.18,1.46,2.48,1.42,3.96.04,1.51-.59,3.21-1.78,5.02-1.13,1.76-3.02,3.75-5.55,5.81-2.31,1.81-4.72,3.42-7.39,4.72-2.63,1.33-5.33,2.35-8.04,3.11-2.71.75-5.35,1.21-7.9,1.36l3.54,13.37c2.03-.06,4.21-.36,6.54-.97,2.35-.54,4.74-1.39,7.21-2.42,2.45-1.03,4.94-2.3,7.35-3.75,2.43-1.45,4.78-3.08,7.03-4.9M768.68,957.64l18.57,39.8-51.14-24.59-12.56,5.84,30.54,65.56,15.01-6.99-18.57-39.79,51.26,24.55,12.44-5.81-30.54-65.53-15.01,6.96h0ZM664.66,1055.61l-4.05-16.24,32.57-8.13-3.14-12.64-32.57,8.14-3.83-15.24,36.9-9.23-3.26-13-53.02,13.21,17.52,70.19,54.3-13.55-3.22-13.03-38.2,9.52ZM546.16,1063.96l1.56-44.82,15.27.54c4.82.18,8.99,1.21,12.46,3.14,3.5,1.94,6.14,4.6,7.98,8.02,1.84,3.42,2.69,7.44,2.55,12.07-.18,4.63-1.32,8.59-3.38,11.85-2.09,3.27-4.9,5.75-8.53,7.44-3.61,1.67-7.82,2.42-12.64,2.3l-15.27-.54h0ZM528.94,1077.09l32.83,1.15c5.95.21,11.38-.49,16.3-2,4.94-1.51,9.22-3.81,12.84-6.84,3.64-3.05,6.48-6.78,8.55-11.13,2.11-4.35,3.24-9.29,3.44-14.76.18-5.5-.61-10.49-2.39-15-1.74-4.48-4.31-8.41-7.78-11.67-3.4-3.3-7.49-5.87-12.31-7.74-4.8-1.87-10.19-2.9-16.12-3.14l-32.83-1.15-2.53,72.27h0ZM472.66,1022.5c-.63,2.57-1.74,4.59-3.3,6.14-1.56,1.54-3.58,2.54-6.04,2.96-2.47.42-5.33.21-8.65-.6l-13.23-3.3,6.1-24.47,13.22,3.33c4.96,1.24,8.43,3.27,10.39,5.99,1.96,2.75,2.47,6.05,1.5,9.95h0ZM479.26,1071.64l-10.13-26.49c3.4-.55,6.42-1.6,9.09-3.21,2.65-1.57,4.94-3.63,6.79-6.23,1.84-2.54,3.22-5.59,4.11-9.13.95-3.93,1.13-7.62.51-11.13-.63-3.48-2-6.65-4.09-9.52-2.09-2.88-4.86-5.35-8.35-7.47-3.44-2.09-7.51-3.75-12.21-4.9l-30.38-7.59-17.5,70.19,16.24,4.05,4.86-19.56,14.16,3.54.79.18,8.67,22.92,17.44,4.35h0ZM340,993.08l22.79-19.48-2.33,29.88-20.46-10.4h0ZM358.04,1033.93l15.63,7.98,4.03-79.14-14.72-7.5-61.57,49.81,15.27,7.8,12.74-10.92,29.95,15.25-1.34,16.72h.01ZM264.17,958.61c-2.29-.54-4.44-1.39-6.36-2.48-1.9-1.09-3.71-2.38-5.39-3.93-2.57-2.33-4.54-4.87-5.91-7.62-1.38-2.75-2.15-5.56-2.31-8.53-.16-2.91.28-5.81,1.32-8.65,1.05-2.85,2.71-5.56,4.98-8.08,2.31-2.57,4.84-4.51,7.57-5.87,2.73-1.33,5.55-2.09,8.47-2.18,2.94-.12,5.85.36,8.73,1.48,2.92,1.09,5.65,2.84,8.28,5.2,2.73,2.42,4.8,5.21,6.2,8.23,1.42,3.08,2.17,6.53,2.23,10.34l14.64-.18c.1-5.45-1.03-10.62-3.44-15.64-2.39-4.99-5.97-9.65-10.67-13.94-4.33-3.84-8.89-6.68-13.71-8.59-4.82-1.87-9.68-2.78-14.56-2.66-4.86.12-9.56,1.18-14.05,3.27-4.5,2.06-8.59,5.14-12.27,9.19-3.65,4.09-6.26,8.47-7.86,13.16-1.62,4.69-2.21,9.47-1.8,14.3.41,4.87,1.78,9.56,4.11,14.15,2.33,4.54,5.61,8.77,9.84,12.58,2.57,2.33,5.41,4.38,8.43,6.17,3.06,1.82,6.24,3.3,9.54,4.41,3.28,1.15,6.6,1.85,9.9,2.18l19.65-21.83-11.34-10.22-14.2,15.72-.02.02Z"/>
</svg>